<?xml version="1.0" encoding="UTF-8" standalone="no"?>
<!DOCTYPE svg PUBLIC "-//W3C//DTD SVG 1.1//EN" "http://www.w3.org/Graphics/SVG/1.1/DTD/svg11.dtd">
<svg width="100%" height="100%" viewBox="0 0 75 68" version="1.1" xmlns="http://www.w3.org/2000/svg" xmlns:xlink="http://www.w3.org/1999/xlink" xml:space="preserve" xmlns:serif="http://www.serif.com/" style="fill-rule:evenodd;clip-rule:evenodd;stroke-linejoin:round;stroke-miterlimit:2;">
    <g transform="matrix(1,0,0,1,-296,-12)">
        <path d="M350.207,38.188C350.207,38.188 353.258,33.324 348.988,26.367C344.715,19.406 330.75,13.059 321.855,17.684C312.945,22.309 312.207,29.418 313.523,34.469C313.523,34.469 301.945,34.586 300.242,46.445C298.543,58.316 302.668,69.082 312.969,72.824C316.383,74.063 318.66,73.082 320.91,72.02C325.465,69.863 328.223,65.508 328.223,65.508C328.223,65.508 331.18,76.395 343.535,74.148C355.898,71.91 353.852,63.172 352.828,59.938C352.828,59.938 363.254,61.938 364.473,52.449C365.688,42.973 357.012,34.617 350.207,38.188" style="fill:rgb(229,245,250);fill-rule:nonzero;"/>
    </g>
    <g transform="matrix(1,0,0,1,-296,-12)">
        <path d="M336.789,25.324C331.711,25.398 322.988,25.535 322.098,20.941C322.859,20.27 323.777,19.633 324.891,19.055C329.523,16.652 336.145,18.574 340.344,21.73C340.48,23.445 339.211,24.941 336.789,25.324" style="fill:white;fill-rule:nonzero;"/>
    </g>
    <g transform="matrix(1,0,0,1,-296,-12)">
        <path d="M319.563,50.516C320.141,50.844 320.523,51.445 320.535,52.395C320.582,55.34 317.383,57.742 313.555,57.504C312.668,57.227 312.258,56.422 312.344,55.176C312.055,53.008 318.234,49.047 319.563,50.516" style="fill:white;fill-rule:nonzero;"/>
    </g>
    <g transform="matrix(1,0,0,1,-296,-12)">
        <path d="M300.242,46.445C301.945,34.586 313.523,34.469 313.523,34.469C313.418,34.059 313.328,33.629 313.254,33.199C313.906,34.551 314.801,35.828 315.969,36.965C320.707,40.402 326.195,41.488 332.016,39.445C326.656,46.164 316.867,44.367 310.703,49.535C309.156,50.344 308.41,52.695 308.035,53.875C308.91,59.324 311.344,65.922 317.605,66.602C325.41,66.484 328.82,59.793 331.051,52.73C332.32,58.961 335.945,65.926 342.203,66.605C350.813,68.035 347.531,57.938 345.484,52.117C349.07,57.133 358,53.48 358.715,49.176C359.465,45.078 358.785,41.543 357.391,38.281C361.797,40.477 365.27,46.219 364.473,52.449C363.254,61.938 352.828,59.938 352.828,59.938C353.852,63.172 355.898,71.91 343.535,74.148C331.18,76.395 328.223,65.508 328.223,65.508C328.223,65.508 325.465,69.863 320.91,72.02C318.66,73.082 316.383,74.063 312.969,72.824C302.668,69.082 298.543,58.316 300.242,46.445" style="fill:rgb(201,228,232);fill-rule:nonzero;"/>
    </g>
    <g transform="matrix(1,0,0,1,-296,-12)">
        <path d="M349.883,38.191C349.766,38.168 350.98,36.969 351.336,34.164C351.82,31.383 350.492,27.16 346.988,23.59C343.508,20.059 338.113,16.926 331.531,16.109C325.191,15.094 316.586,17.816 313.785,25.426C311.191,32.672 313.488,40.977 318.828,45.086C324.703,49.438 331.98,45.215 333.848,40.773C335.082,38.488 334.305,35.605 332.445,34.594C330.641,33.52 328.633,33.934 327.527,34.809C325.285,37.215 327.762,38.938 327.387,38.738C327.789,38.871 325.602,37.07 327.711,35.047C328.727,34.277 330.633,33.953 332.223,34.957C333.852,35.91 334.531,38.43 333.355,40.547C331.52,44.719 324.602,48.605 319.242,44.512C314.242,40.652 312.012,32.578 314.504,25.695C317.125,18.523 325.266,15.875 331.453,16.813C337.848,17.566 343.168,20.57 346.602,23.969C350.066,27.41 351.41,31.43 351.039,34.133C350.789,36.863 349.676,38.113 349.883,38.191" style="fill:rgb(162,196,204);fill-rule:nonzero;"/>
    </g>
    <g transform="matrix(1,0,0,1,-296,-12)">
        <path d="M352.828,59.938C352.672,59.684 356.324,61.746 361.109,58.746C365.793,55.527 366.242,45.781 360.223,39.977C353.707,33.105 343.387,40.137 344.609,45.832C345.656,48.777 349.113,48.484 349.965,47.254C351.063,45.949 350.063,44.992 350.191,45.082C350.008,45.063 350.777,46.016 349.758,47.043C348.91,48.078 345.926,48.184 345.129,45.676C344.176,40.766 353.707,34.063 359.699,40.535C365.391,45.996 365.043,55.293 360.781,58.324C356.426,61.25 352.707,59.512 352.828,59.938" style="fill:rgb(162,196,204);fill-rule:nonzero;"/>
    </g>
    <g transform="matrix(1,0,0,1,-296,-12)">
        <path d="M333.902,64.203C333.84,64.125 334.805,64.734 336.141,63.762C337.25,62.652 337.387,59.797 335.238,57.867C332.449,56.008 328.953,59.336 328.352,62.715C327.625,66.34 329.582,70.539 333.098,72.77C340.48,77.016 349.148,73.871 352.359,69.73C355.352,64.859 352.953,61.211 353.105,61.426C352.789,61.285 354.855,64.973 351.922,69.414C348.891,73.207 340.344,76.145 333.52,72.133C330.23,70.051 328.41,66.152 329.043,62.844C329.547,59.719 332.773,56.797 334.926,58.309C336.824,59.895 336.844,62.59 335.93,63.555C334.855,64.465 333.855,64.047 333.902,64.203" style="fill:rgb(162,196,204);fill-rule:nonzero;"/>
    </g>
    <g transform="matrix(1,0,0,1,-296,-12)">
        <path d="M328.016,66.117C327.824,65.875 325.668,69.172 320.395,71.816C314.941,75.023 305.668,70.887 302.453,62.262C298.688,54.113 299.547,44.816 304.023,40.734C308.254,36.543 312.328,36.172 312.184,35.984C312.285,35.977 308.129,36.125 303.641,40.355C298.848,44.531 297.887,54.238 301.754,62.574C304.977,71.457 314.988,75.844 320.613,72.313C326.008,69.434 327.965,66.016 328.016,66.117" style="fill:rgb(162,196,204);fill-rule:nonzero;"/>
    </g>
</svg>
