<?xml version="1.0" encoding="UTF-8" standalone="no"?>
<!DOCTYPE svg PUBLIC "-//W3C//DTD SVG 1.1//EN" "http://www.w3.org/Graphics/SVG/1.1/DTD/svg11.dtd">
<svg width="100%" height="100%" viewBox="0 0 228 220" version="1.1" xmlns="http://www.w3.org/2000/svg" xmlns:xlink="http://www.w3.org/1999/xlink" xml:space="preserve" xmlns:serif="http://www.serif.com/" style="fill-rule:evenodd;clip-rule:evenodd;stroke-linejoin:round;stroke-miterlimit:2;">
    <g transform="matrix(1,0,0,1,-362,-160)">
        <path d="M584.738,265.668C594.07,286.43 576.82,306.961 568.719,307.125L548.543,307.125L518.242,253.352L562.93,227.5L584.391,264.602L584.738,265.668Z" style="fill:rgb(46,125,50);fill-rule:nonzero;"/>
    </g>
    <g transform="matrix(1,0,0,1,-362,-160)">
        <path d="M477.973,175.855L466.719,162.758L454.582,162.758C444.809,162.602 432.891,166.059 425.859,176.121L425.32,177L403.867,214.113L448.566,239.977L480.988,186.988L477.973,175.855Z" style="fill:rgb(46,125,50);fill-rule:nonzero;"/>
    </g>
    <g transform="matrix(1,0,0,1,-362,-160)">
        <path d="M427.633,358.973C404.926,356.672 395,333.469 398.871,326.246L408.012,307.426L474.961,307.426L471.613,359.152L428.691,359.152L427.633,358.973Z" style="fill:rgb(46,125,50);fill-rule:nonzero;"/>
    </g>
    <g transform="matrix(1,0,0,1,-362,-160)">
        <path d="M566.977,306.824C573.133,306.645 577.32,302.965 582.543,295.406L548.484,352.738C546.035,358.18 542.684,359.07 539.176,358.73L509.078,358.73L508.898,377.008L483.559,333.027L509.066,288.531L509.066,306.813L566.977,306.813L566.977,306.824Z" style="fill:rgb(76,175,80);fill-rule:nonzero;"/>
    </g>
    <g transform="matrix(1,0,0,1,-362,-160)">
        <path d="M469.684,169.609C464.941,162.016 458.125,162.766 455.984,162.766L518.602,162.766C524.582,162.203 527.039,164.5 528.629,167.848L543.582,193.883L559.395,184.742L534.063,228.895L482.875,229.086L498.527,219.938L469.684,169.609Z" style="fill:rgb(76,175,80);fill-rule:nonzero;"/>
    </g>
    <g transform="matrix(1,0,0,1,-362,-160)">
        <path d="M400.172,323.531C397.191,328.82 398.055,333.875 401.699,341.164L369.555,284.492C366.215,279.547 367.094,276.391 369.02,273.398L384.148,247.371L368.328,238.043L419.176,238.043L445.047,282.371L429.207,273.242L400.172,323.531Z" style="fill:rgb(76,175,80);fill-rule:nonzero;"/>
    </g>
</svg>
