<?xml version="1.0" encoding="UTF-8" standalone="no"?>
<svg
   xmlns:dc="http://purl.org/dc/elements/1.1/"
   xmlns:cc="http://creativecommons.org/ns#"
   xmlns:rdf="http://www.w3.org/1999/02/22-rdf-syntax-ns#"
   xmlns:svg="http://www.w3.org/2000/svg"
   xmlns="http://www.w3.org/2000/svg"
   xmlns:sodipodi="http://sodipodi.sourceforge.net/DTD/sodipodi-0.dtd"
   xmlns:inkscape="http://www.inkscape.org/namespaces/inkscape"
   width="100%"
   height="100%"
   viewBox="0 0 176 65"
   version="1.1"
   xml:space="preserve"
   style="fill-rule:evenodd;clip-rule:evenodd;stroke-linejoin:round;stroke-miterlimit:2;"
   id="svg969"
   sodipodi:docname="smalllogo.svg"
   inkscape:version="1.0.1 (1.0.1+r74)"><metadata
   id="metadata975"><rdf:RDF><cc:Work
       rdf:about=""><dc:format>image/svg+xml</dc:format><dc:type
         rdf:resource="http://purl.org/dc/dcmitype/StillImage" /></cc:Work></rdf:RDF></metadata><defs
   id="defs973">
        
    
            
            
            
            
            
            
            
            
            
            
            
            
            
            
            
            
            
            
            
            
            
            
            
        </defs><sodipodi:namedview
   pagecolor="#ffffff"
   bordercolor="#666666"
   borderopacity="1"
   objecttolerance="10"
   gridtolerance="10"
   guidetolerance="10"
   inkscape:pageopacity="0"
   inkscape:pageshadow="2"
   inkscape:window-width="1600"
   inkscape:window-height="843"
   id="namedview971"
   showgrid="false"
   inkscape:zoom="3.7644315"
   inkscape:cx="114.81308"
   inkscape:cy="26.703165"
   inkscape:window-x="0"
   inkscape:window-y="33"
   inkscape:window-maximized="1"
   inkscape:current-layer="svg969" />
    <path
   id="Fill-4"
   d="m 0,38.77 3.177,-3.813 c 2.199,1.819 4.504,2.973 7.297,2.973 2.199,0 3.526,-0.875 3.526,-2.308 V 35.551 C 14,34.186 13.162,33.487 9.076,32.438 4.154,31.178 0.977,29.814 0.977,24.951 v -0.069 c 0,-4.443 3.561,-7.382 8.554,-7.382 3.56,0 6.598,1.12 9.078,3.114 l -2.794,4.058 C 13.65,23.168 11.521,22.258 9.46,22.258 c -2.059,0 -3.142,0.945 -3.142,2.134 v 0.07 c 0,1.61 1.048,2.134 5.273,3.218 4.957,1.294 7.749,3.079 7.749,7.346 v 0.071 c 0,4.862 -3.7,7.59 -8.972,7.59 -3.7,0 -7.435,-1.294 -10.368,-3.917"
   style="fill-rule:nonzero" /><path
   id="Fill-5"
   d="m 21.803,32.707 v -0.07 c 0,-5.352 4.085,-9.761 9.81,-9.761 3.528,0 5.727,1.19 7.473,3.149 l -3.247,3.499 c -1.187,-1.26 -2.374,-2.064 -4.259,-2.064 -2.655,0 -4.54,2.344 -4.54,5.106 v 0.071 c 0,2.869 1.85,5.177 4.748,5.177 1.782,0 3.003,-0.769 4.295,-1.994 l 3.107,3.149 c -1.815,1.993 -3.91,3.428 -7.646,3.428 -5.621,0 -9.741,-4.337 -9.741,-9.69"
   style="fill-rule:nonzero" /><path
   id="Fill-6"
   d="m 55.242,32.707 v -0.07 c 0,-2.764 -1.99,-5.177 -4.923,-5.177 -3.037,0 -4.853,2.344 -4.853,5.106 v 0.071 c 0,2.764 1.99,5.177 4.922,5.177 3.038,0 4.854,-2.344 4.854,-5.107 m -15.013,0 v -0.07 c 0,-5.388 4.33,-9.761 10.159,-9.761 5.796,0 10.09,4.304 10.09,9.69 v 0.071 c 0,5.387 -4.329,9.76 -10.159,9.76 -5.796,0 -10.09,-4.302 -10.09,-9.69"
   style="fill-rule:nonzero" /><path
   id="Fill-7"
   d="M 62.548,35.365 V 23.227 h 5.307 v 10.459 c 0,2.519 1.187,3.813 3.212,3.813 2.024,0 3.316,-1.294 3.316,-3.813 V 23.227 h 5.307 v 18.75 h -5.307 v -2.658 c -1.221,1.573 -2.792,3.007 -5.48,3.007 -4.015,0 -6.355,-2.658 -6.355,-6.961"
   style="fill-rule:nonzero" /><path
   id="Fill-8"
   d="M 82.774,36.66 V 18.434 h 5.306 v 4.792 h 4.401 v 4.548 H 88.08 v 8.011 c 0,1.225 0.525,1.82 1.711,1.82 0.977,0 1.85,-0.246 2.618,-0.665 v 4.268 c -1.117,0.664 -2.408,1.084 -4.189,1.084 -3.247,0 -5.446,-1.294 -5.446,-5.632"
   style="fill-rule:nonzero" /><path
   id="Fill-9"
   d="m 94.817,39.494 2.27,-3.499 c 2.024,1.47 4.154,2.239 5.899,2.239 1.536,0 2.235,-0.559 2.235,-1.399 v -0.07 c 0,-1.155 -1.816,-1.54 -3.876,-2.169 -2.618,-0.77 -5.585,-1.994 -5.585,-5.632 v -0.07 c 0,-3.813 3.072,-5.947 6.843,-5.947 2.373,0 4.957,0.804 6.982,2.168 l -2.025,3.674 c -1.85,-1.085 -3.701,-1.749 -5.063,-1.749 -1.292,0 -1.954,0.56 -1.954,1.294 v 0.07 c 0,1.05 1.781,1.54 3.804,2.239 2.62,0.875 5.657,2.134 5.657,5.562 v 0.07 c 0,4.163 -3.107,6.052 -7.157,6.052 -2.619,0 -5.551,-0.875 -8.03,-2.833"
   style="fill-rule:nonzero" /><path
   id="Fill-10"
   d="m 135.719,22.055 c 1.514,2.325 2.276,4.986 2.515,6.79 h 2.764 c -0.231,-2.205 -1.12,-5.435 -2.979,-8.293 -2.212,-3.398 -5.092,-5.196 -8.328,-5.198 h -0.02 c -2.468,0 -4.778,1.112 -6.339,3.05 -1.64,2.038 -2.261,4.674 -1.704,7.232 l 2.682,-0.588 c -0.374,-1.713 0.06,-3.551 1.159,-4.917 1.053,-1.306 2.543,-2.026 4.203,-2.026 h 0.014 c 2.863,0.003 4.861,2.149 6.033,3.95"
   style="fill-rule:nonzero" /><path
   id="Fill-11"
   d="m 155.672,41.327 c -1.075,-1.489 -1.858,-3.274 -2.204,-4.99 h -2.79 c 0.215,1.34 0.783,3.553 2.28,5.886 -0.938,1.574 -2.622,3.127 -4.402,4.056 -0.001,0 -0.002,0 -0.003,-0.001 -0.001,0.001 -0.002,0.001 -0.003,0.001 -1.782,-0.929 -3.465,-2.482 -4.403,-4.056 1.497,-2.333 2.065,-4.546 2.279,-5.886 h -2.789 c -0.345,1.716 -1.129,3.501 -2.203,4.99 l -0.468,0.65 0.334,0.729 c 1.165,2.548 3.857,5.103 6.697,6.357 l 0.552,0.245 0.004,-10e-4 0.003,10e-4 0.552,-0.245 c 2.84,-1.254 5.531,-3.809 6.697,-6.357 l 0.333,-0.729 z"
   style="fill-rule:nonzero" /><path
   id="Fill-12"
   d="m 161.386,22.055 c -1.514,2.325 -2.277,4.986 -2.515,6.79 h -2.764 c 0.232,-2.205 1.12,-5.435 2.979,-8.293 2.212,-3.398 5.092,-5.196 8.328,-5.198 h 0.02 c 2.467,0 4.777,1.112 6.338,3.05 1.641,2.038 2.262,4.674 1.704,7.232 l -2.682,-0.588 c 0.374,-1.713 -0.059,-3.551 -1.158,-4.917 -1.054,-1.306 -2.544,-2.026 -4.203,-2.026 h -0.015 c -2.863,0.003 -4.86,2.149 -6.032,3.95"
   style="fill-rule:nonzero" /><path
   id="Fill-13"
   d="m 143.755,28.845 h 2.764 c -0.345,-3.191 -1.594,-5.971 -2.702,-8.434 -1.106,-2.458 -2.149,-4.78 -2.134,-7.093 0.023,-2.661 1.537,-5.373 4.051,-7.259 0.44,-0.333 1.692,-1.296 2.819,-2.331 1.124,1.035 2.377,1.998 2.818,2.331 2.513,1.886 4.028,4.598 4.051,7.259 0.014,2.313 -1.029,4.635 -2.134,7.093 -1.108,2.463 -2.357,5.243 -2.702,8.434 h 2.764 c 0.342,-2.635 1.408,-5.006 2.441,-7.304 1.232,-2.739 2.394,-5.326 2.377,-8.244 -0.032,-3.517 -1.956,-7.044 -5.151,-9.438 -0.376,-0.286 -2.335,-1.782 -3.46,-2.997 l -1.004,-1.085 -1.004,1.085 c -1.127,1.215 -3.086,2.711 -3.463,2.997 -3.192,2.394 -5.117,5.921 -5.149,9.438 -0.018,2.918 1.145,5.505 2.376,8.244 1.034,2.298 2.1,4.669 2.442,7.304"
   style="fill-rule:nonzero" /><rect
   id="Fill-14"
   x="132.871"
   y="31.271999"
   width="31.363001"
   height="2.6370001"
   style="fill-rule:nonzero" />
<text
   xml:space="preserve"
   style="font-style:normal;font-weight:normal;font-size:40px;line-height:1.25;font-family:sans-serif;fill:#000000;fill-opacity:1;stroke:none"
   x="97.651001"
   y="54.16"
   id="text979"><tspan
     sodipodi:role="line"
     id="tspan977"
     x="97.651001"
     y="54.16"></tspan></text><text
   xml:space="preserve"
   style="font-style:normal;font-weight:normal;font-size:15.0701px;line-height:1.25;font-family:sans-serif;fill:#000000;fill-opacity:1;stroke:none;stroke-width:0.376753"
   x="0.85253459"
   y="58.383457"
   id="text1030"><tspan
     sodipodi:role="line"
     id="tspan1028"
     x="0.85253459"
     y="58.383457"
     style="stroke-width:0.376753">1st Chinley Scouts</tspan></text></svg>
